<?xml version="1.0" ?><svg height="50px" id="Слой_1" style="enable-background:new 0 0 50 50;" version="1.1" viewBox="0 0 50 50" width="50px" xml:space="preserve" xmlns="http://www.w3.org/2000/svg" xmlns:xlink="http://www.w3.org/1999/xlink"><style type="text/css">
	.st0{fill-rule:evenodd;clip-rule:evenodd;fill:#ED74A5;}
	.st1{fill:#444B54;}
	.st2{fill:#FFFFFF;}
	.st3{fill-rule:evenodd;clip-rule:evenodd;fill:#FFFFFF;}
	.st4{fill-rule:evenodd;clip-rule:evenodd;fill:#F6F7F7;}
	.st5{fill-rule:evenodd;clip-rule:evenodd;fill:#F8C9DC;}
	.st6{fill:#ED74A5;}
	.st7{fill-rule:evenodd;clip-rule:evenodd;fill:#659EC9;}
	.st8{fill-rule:evenodd;clip-rule:evenodd;fill:#FF697B;}
	.st9{fill-rule:evenodd;clip-rule:evenodd;fill:#74CAFC;}
	.st10{fill-rule:evenodd;clip-rule:evenodd;fill:#41CEB3;}
	.st11{fill-rule:evenodd;clip-rule:evenodd;fill:#FFEB6B;}
	.st12{fill-rule:evenodd;clip-rule:evenodd;fill:#387FB5;}
	.st13{fill-rule:evenodd;clip-rule:evenodd;fill:#FC913A;}
	.st14{fill-rule:evenodd;clip-rule:evenodd;fill:#3C688A;}
	.st15{fill-rule:evenodd;clip-rule:evenodd;fill:#6F4BB3;}
	.st16{fill-rule:evenodd;clip-rule:evenodd;fill:#38E8A1;}
	.st17{fill-rule:evenodd;clip-rule:evenodd;fill:#45BBFF;}
</style><g><path class="st0" d="M24.96108,1.64764c5.11784,0,9.99945,0.47248,14.48739,1.25997   c3.93681,0.70877,6.92876,3.70123,7.63739,7.63871c0.78735,4.48868,1.25978,9.37116,1.25978,14.48985   c0,5.03996-0.47243,9.92241-1.25978,14.41108c-0.70863,4.01624-3.70059,6.92994-7.63739,7.63871   c-4.48794,0.78749-9.36955,1.25997-14.48739,1.25997c-5.03911,0-9.92073-0.47248-14.40867-1.25997   c-4.01554-0.70877-6.92877-3.62247-7.63739-7.63871c-0.78735-4.48867-1.25978-9.37112-1.25978-14.41108   c0-5.11868,0.47242-10.00117,1.25978-14.48985c0.70863-3.93747,3.62186-6.92994,7.63739-7.63871   C15.04035,2.12012,19.92197,1.64764,24.96108,1.64764L24.96108,1.64764z"/><path class="st1" d="M24.96067,50c-4.88526,0-9.8302-0.43272-14.69376-1.2846c-4.70895-0.83289-8.14843-4.27295-8.97846-8.97998   C0.434,34.88053,0,29.93611,0,25.03646c0-4.9512,0.434-9.92275,1.28845-14.77628C2.1212,5.61691,5.64477,2.0941,10.2642,1.27884   c9.76781-1.71461,19.81501-1.69562,29.46889,0c4.62486,0.83153,8.14572,4.35434,8.98118,8.9732   c0.07866,0.55074,0.16546,1.04043,0.25226,1.53691c0.11121,0.6267,0.22243,1.26289,0.30923,1.92486   c0.12206,0.90478-0.51538,1.73767-1.42136,1.85704c-0.89242,0.12208-1.73602-0.51411-1.85537-1.42025   c-0.08138-0.61449-0.18716-1.20728-0.29024-1.79057c-0.09222-0.53174-0.18445-1.05535-0.25769-1.58031   c-0.57777-3.1864-3.05159-5.66065-6.29577-6.24394c-9.2687-1.62779-18.92258-1.64814-28.31878,0.00136   c-3.28758,0.57922-5.69902,2.99514-6.29306,6.30227c-0.81918,4.6582-1.2342,9.43712-1.2342,14.19705   c0,4.70703,0.41502,9.46018,1.2342,14.12516c0.59133,3.35054,2.9458,5.70405,6.29577,6.29548   c9.40433,1.64543,19.02295,1.62779,28.3242,0c3.29843-0.59414,5.71258-3.00734,6.29578-6.29819   c0.81647-4.66769,1.23149-9.42084,1.23149-14.12245v-1.26018c0-0.91292,0.74052-1.65357,1.65464-1.65357   c0.91412,0,1.65464,0.74065,1.65464,1.65357v1.26018c0,4.89287-0.43401,9.83729-1.28574,14.69624   c-0.81647,4.62157-4.34004,8.14574-8.97304,8.98134C34.87224,49.56728,29.90018,50,24.96067,50z"/><path class="st1" d="M48.10937,20.78386c-0.91412,0-1.65464-0.74064-1.65464-1.65356v-0.63077   c0-0.91292,0.74052-1.65356,1.65464-1.65356c0.91412,0,1.65464,0.74064,1.65464,1.65356v0.63077   C49.76401,20.04321,49.02349,20.78386,48.10937,20.78386z"/><path class="st2" d="M32.36315,41.25876H17.63956c-4.90696,0-8.8998-3.99216-8.8998-8.89859V17.63408   c0-4.90644,3.99284-8.89859,8.8998-8.89859h14.72359c4.90425,0,8.89709,3.99216,8.89709,8.89859v14.72609   C41.26024,37.2666,37.2674,41.25876,32.36315,41.25876z M17.63956,12.04261c-3.08414,0-5.59052,2.50816-5.59052,5.59146v14.72609   c0,3.08331,2.50637,5.59146,5.59052,5.59146h14.72359c3.08143,0,5.58781-2.50816,5.58781-5.59146V17.63408   c0-3.08331-2.50637-5.59146-5.58781-5.59146H17.63956z"/><path class="st2" d="M24.96067,33.46164c-4.60044,0-8.34644-3.77919-8.34644-8.42518s3.746-8.42653,8.34644-8.42653   c4.72251,0,8.42511,3.70187,8.42511,8.42653C33.38578,29.68245,29.60451,33.46164,24.96067,33.46164z M24.96067,19.91706   c-2.82645,0-5.03716,2.24907-5.03716,5.1194c0,2.8215,2.25953,5.11805,5.03716,5.11805c2.82103,0,5.11582-2.29654,5.11582-5.11805   C30.07649,22.16612,27.83052,19.91706,24.96067,19.91706z"/><path class="st3" d="M33.62203,18.26375c1.02356,0,1.88966-0.86625,1.88966-1.89002c0-1.02373-0.8661-1.88998-1.88966-1.88998   c-1.02357,0-1.81093,0.86625-1.81093,1.88998C31.8111,17.3975,32.59845,18.26375,33.62203,18.26375L33.62203,18.26375z"/></g></svg>